<?xml version="1.0" encoding="utf-8"?>
<!-- Generator: Adobe Illustrator 22.1.0, SVG Export Plug-In . SVG Version: 6.00 Build 0)  -->
<svg version="1.1" xmlns="http://www.w3.org/2000/svg" xmlns:xlink="http://www.w3.org/1999/xlink" x="0px" y="0px"
	 viewBox="0 0 90 130" style="enable-background:new 0 0 90 130;" xml:space="preserve">
<style type="text/css">
	.st0{fill:#0B23D3;}
</style>
<g id="Layer_1">
</g>
<g id="Layer_2">
	<path class="st0" d="M86.49,0.29L86.79,0h-2.76l0.29,0.29l-2.75,2.75l-2.75-2.75L79.11,0h-2.76l0.29,0.29L73.9,3.04l-2.75-2.75
		L71.44,0h-2.76l0.29,0.29l-2.75,2.75l-2.75-2.75L63.77,0h-2.76l0.29,0.29l-2.75,2.75l-2.75-2.75L56.1,0h-2.76l0.29,0.29l-2.75,2.75
		l-2.75-2.75L48.43,0h-2.76l0.29,0.29l-2.75,2.75l-2.75-2.75L40.76,0H38l0.29,0.29l-2.75,2.75l-2.75-2.75L33.08,0h-2.76l0.29,0.29
		l-2.75,2.75l-2.75-2.75L25.41,0h-2.76l0.29,0.29L20.2,3.04l-2.75-2.75L17.74,0h-2.76l0.29,0.29l-2.75,2.75L9.78,0.29L10.07,0H7.31
		l0.29,0.29L4.85,3.04L2.1,0.29L2.4,0H0v2.4l1.02-1.02l2.75,2.75L1.02,6.88L0,5.86v4.21l1.02-1.02l2.75,2.75l-2.75,2.75L0,13.53
		v4.21l1.02-1.02l2.75,2.75l-2.75,2.75L0,21.2v4.21l1.02-1.02l2.75,2.75L1.02,29.9L0,28.88v4.21l1.02-1.02l2.75,2.75l-2.75,2.75
		L0,36.55v4.21l1.02-1.02l2.75,2.75l-2.75,2.75L0,44.22v4.21l1.02-1.02l2.75,2.75l-2.75,2.75L0,51.89v4.21l1.02-1.02l2.75,2.75
		l-2.75,2.75L0,59.56v4.21l1.02-1.02l2.75,2.75l-2.75,2.75L0,67.23v4.21l1.02-1.02l2.75,2.75l-2.75,2.75L0,74.91v4.21l1.02-1.02
		l2.75,2.75L1.02,83.6L0,82.58v4.21l1.02-1.02l2.75,2.75l-2.75,2.75L0,90.25v4.21l1.02-1.02l2.75,2.75l-2.75,2.75L0,97.92v4.21
		l1.02-1.02l2.75,2.75l-2.75,2.75L0,105.59v4.21l1.02-1.02l2.75,2.75l-2.75,2.75L0,113.27v4.21l1.02-1.02l2.75,2.75l-2.75,2.75
		L0,120.94v4.21l1.02-1.02l2.75,2.75l-2.75,2.75L0,128.61V130h2.82l2.04-2.04L6.89,130h3.59l2.04-2.04l2.04,2.04h3.59l2.04-2.04
		l2.04,2.04h3.59l2.04-2.04l2.04,2.04h3.59l2.04-2.04l2.04,2.04h3.59l2.04-2.04l2.04,2.04h3.59l2.04-2.04l2.04,2.04h3.59l2.04-2.04
		L60.6,130h3.59l2.04-2.04l2.04,2.04h3.59l2.04-2.04l2.04,2.04h3.59l2.04-2.04l2.04,2.04h3.59l2.04-2.04l0.76,0.76v-3.68l-0.76,0.76
		l-2.75-2.75l2.75-2.75l0.76,0.76v-3.68l-0.76,0.76l-2.75-2.75l2.75-2.75l0.76,0.76v-3.68l-0.76,0.76l-2.75-2.75l2.75-2.75L90,105.7
		v-3.68l-0.76,0.76l-2.75-2.75l2.75-2.75L90,98.03v-3.68l-0.76,0.76l-2.75-2.75l2.75-2.75L90,90.36v-3.68l-0.76,0.76l-2.75-2.75
		l2.75-2.75L90,82.69v-3.68l-0.76,0.76l-2.75-2.75l2.75-2.75L90,75.02v-3.68l-0.76,0.76l-2.75-2.75l2.75-2.75L90,67.34v-3.68
		l-0.76,0.76l-2.75-2.75l2.75-2.75L90,59.67v-3.68l-0.76,0.76L86.49,54l2.75-2.75L90,52v-3.68l-0.76,0.76l-2.75-2.75l2.75-2.75
		L90,44.33v-3.68l-0.76,0.76l-2.75-2.75l2.75-2.75L90,36.66v-3.68l-0.76,0.76l-2.75-2.75l2.75-2.75L90,28.99V25.3l-0.76,0.76
		l-2.75-2.75l2.75-2.75L90,21.31v-3.68l-0.76,0.76l-2.75-2.75l2.75-2.75L90,13.64V9.96l-0.76,0.76l-2.75-2.75l2.75-2.75L90,5.97
		V2.29l-0.76,0.76L86.49,0.29z M84.32,7.97l-2.75,2.75l-2.75-2.75l2.75-2.75L84.32,7.97z M51.97,57.83l2.75-2.75l2.75,2.75
		l-2.75,2.75L51.97,57.83z M57.47,65.5l-2.75,2.75l-2.75-2.75l2.75-2.75L57.47,65.5z M53.64,61.67l-2.75,2.75l-2.75-2.75l2.75-2.75
		L53.64,61.67z M49.8,65.5l-2.75,2.75L44.3,65.5l2.75-2.75L49.8,65.5z M47.05,60.58l-2.75-2.75l2.75-2.75l2.75,2.75L47.05,60.58z
		 M45.96,61.67l-2.75,2.75l-2.75-2.75l2.75-2.75L45.96,61.67z M42.13,65.5l-2.75,2.75l-2.75-2.75l2.75-2.75L42.13,65.5z
		 M39.38,60.58l-2.75-2.75l2.75-2.75l2.75,2.75L39.38,60.58z M38.29,61.67l-2.75,2.75l-2.75-2.75l2.75-2.75L38.29,61.67z
		 M31.71,60.58l-2.75-2.75l2.75-2.75l2.75,2.75L31.71,60.58z M34.46,65.5l-2.75,2.75l-2.75-2.75l2.75-2.75L34.46,65.5z M34.46,73.17
		l-2.75,2.75l-2.75-2.75l2.75-2.75L34.46,73.17z M32.79,69.34l2.75-2.75l2.75,2.75l-2.75,2.75L32.79,69.34z M39.38,70.42l2.75,2.75
		l-2.75,2.75l-2.75-2.75L39.38,70.42z M40.46,69.34l2.75-2.75l2.75,2.75l-2.75,2.75L40.46,69.34z M47.05,70.42l2.75,2.75l-2.75,2.75
		l-2.75-2.75L47.05,70.42z M48.13,69.34l2.75-2.75l2.75,2.75l-2.75,2.75L48.13,69.34z M54.72,70.42l2.75,2.75l-2.75,2.75l-2.75-2.75
		L54.72,70.42z M55.81,69.34l2.75-2.75l2.75,2.75l-2.75,2.75L55.81,69.34z M55.81,61.67l2.75-2.75l2.75,2.75l-2.75,2.75L55.81,61.67
		z M55.81,54l2.75-2.75L61.31,54l-2.75,2.75L55.81,54z M54.72,52.91l-2.75-2.75l2.75-2.75l2.75,2.75L54.72,52.91z M53.64,54
		l-2.75,2.75L48.13,54l2.75-2.75L53.64,54z M47.05,52.91l-2.75-2.75l2.75-2.75l2.75,2.75L47.05,52.91z M45.96,54l-2.75,2.75
		L40.46,54l2.75-2.75L45.96,54z M39.38,52.91l-2.75-2.75l2.75-2.75l2.75,2.75L39.38,52.91z M38.29,54l-2.75,2.75L32.79,54l2.75-2.75
		L38.29,54z M31.71,52.91l-2.75-2.75l2.75-2.75l2.75,2.75L31.71,52.91z M30.62,54l-2.75,2.75L25.12,54l2.75-2.75L30.62,54z
		 M30.62,61.67l-2.75,2.75l-2.75-2.75l2.75-2.75L30.62,61.67z M30.62,69.34l-2.75,2.75l-2.75-2.75l2.75-2.75L30.62,69.34z
		 M30.62,77.01l-2.75,2.75l-2.75-2.75l2.75-2.75L30.62,77.01z M31.71,78.1l2.75,2.75l-2.75,2.75l-2.75-2.75L31.71,78.1z
		 M32.79,77.01l2.75-2.75l2.75,2.75l-2.75,2.75L32.79,77.01z M39.38,78.1l2.75,2.75l-2.75,2.75l-2.75-2.75L39.38,78.1z M40.46,77.01
		l2.75-2.75l2.75,2.75l-2.75,2.75L40.46,77.01z M47.05,78.1l2.75,2.75l-2.75,2.75l-2.75-2.75L47.05,78.1z M48.13,77.01l2.75-2.75
		l2.75,2.75l-2.75,2.75L48.13,77.01z M54.72,78.1l2.75,2.75l-2.75,2.75l-2.75-2.75L54.72,78.1z M55.81,77.01l2.75-2.75l2.75,2.75
		l-2.75,2.75L55.81,77.01z M62.39,78.1l2.75,2.75l-2.75,2.75l-2.75-2.75L62.39,78.1z M59.64,73.17l2.75-2.75l2.75,2.75l-2.75,2.75
		L59.64,73.17z M59.64,65.5l2.75-2.75l2.75,2.75l-2.75,2.75L59.64,65.5z M59.64,57.83l2.75-2.75l2.75,2.75l-2.75,2.75L59.64,57.83z
		 M59.64,50.16l2.75-2.75l2.75,2.75l-2.75,2.75L59.64,50.16z M59.64,42.49l2.75-2.75l2.75,2.75l-2.75,2.75L59.64,42.49z
		 M61.31,46.32l-2.75,2.75l-2.75-2.75l2.75-2.75L61.31,46.32z M54.72,45.24l-2.75-2.75l2.75-2.75l2.75,2.75L54.72,45.24z
		 M53.64,46.32l-2.75,2.75l-2.75-2.75l2.75-2.75L53.64,46.32z M47.05,45.24l-2.75-2.75l2.75-2.75l2.75,2.75L47.05,45.24z
		 M45.96,46.32l-2.75,2.75l-2.75-2.75l2.75-2.75L45.96,46.32z M39.38,45.24l-2.75-2.75l2.75-2.75l2.75,2.75L39.38,45.24z
		 M38.29,46.32l-2.75,2.75l-2.75-2.75l2.75-2.75L38.29,46.32z M31.71,45.24l-2.75-2.75l2.75-2.75l2.75,2.75L31.71,45.24z
		 M30.62,46.32l-2.75,2.75l-2.75-2.75l2.75-2.75L30.62,46.32z M24.03,45.24l-2.75-2.75l2.75-2.75l2.75,2.75L24.03,45.24z
		 M26.79,50.16l-2.75,2.75l-2.75-2.75l2.75-2.75L26.79,50.16z M26.79,57.83l-2.75,2.75l-2.75-2.75l2.75-2.75L26.79,57.83z
		 M26.79,65.5l-2.75,2.75l-2.75-2.75l2.75-2.75L26.79,65.5z M26.79,73.17l-2.75,2.75l-2.75-2.75l2.75-2.75L26.79,73.17z
		 M26.79,80.85l-2.75,2.75l-2.75-2.75l2.75-2.75L26.79,80.85z M26.79,88.52l-2.75,2.75l-2.75-2.75l2.75-2.75L26.79,88.52z
		 M25.12,84.68l2.75-2.75l2.75,2.75l-2.75,2.75L25.12,84.68z M31.71,85.77l2.75,2.75l-2.75,2.75l-2.75-2.75L31.71,85.77z
		 M32.79,84.68l2.75-2.75l2.75,2.75l-2.75,2.75L32.79,84.68z M39.38,85.77l2.75,2.75l-2.75,2.75l-2.75-2.75L39.38,85.77z
		 M40.46,84.68l2.75-2.75l2.75,2.75l-2.75,2.75L40.46,84.68z M47.05,85.77l2.75,2.75l-2.75,2.75l-2.75-2.75L47.05,85.77z
		 M48.13,84.68l2.75-2.75l2.75,2.75l-2.75,2.75L48.13,84.68z M54.72,85.77l2.75,2.75l-2.75,2.75l-2.75-2.75L54.72,85.77z
		 M55.81,84.68l2.75-2.75l2.75,2.75l-2.75,2.75L55.81,84.68z M62.39,85.77l2.75,2.75l-2.75,2.75l-2.75-2.75L62.39,85.77z
		 M63.48,84.68l2.75-2.75l2.75,2.75l-2.75,2.75L63.48,84.68z M63.48,77.01l2.75-2.75l2.75,2.75l-2.75,2.75L63.48,77.01z
		 M63.48,69.34l2.75-2.75l2.75,2.75l-2.75,2.75L63.48,69.34z M63.48,61.67l2.75-2.75l2.75,2.75l-2.75,2.75L63.48,61.67z M63.48,54
		l2.75-2.75L68.98,54l-2.75,2.75L63.48,54z M63.48,46.32l2.75-2.75l2.75,2.75l-2.75,2.75L63.48,46.32z M63.48,38.65l2.75-2.75
		l2.75,2.75l-2.75,2.75L63.48,38.65z M62.39,37.57l-2.75-2.75l2.75-2.75l2.75,2.75L62.39,37.57z M61.31,38.65l-2.75,2.75l-2.75-2.75
		l2.75-2.75L61.31,38.65z M54.72,37.57l-2.75-2.75l2.75-2.75l2.75,2.75L54.72,37.57z M53.64,38.65l-2.75,2.75l-2.75-2.75l2.75-2.75
		L53.64,38.65z M47.05,37.57l-2.75-2.75l2.75-2.75l2.75,2.75L47.05,37.57z M45.96,38.65l-2.75,2.75l-2.75-2.75l2.75-2.75
		L45.96,38.65z M39.38,37.57l-2.75-2.75l2.75-2.75l2.75,2.75L39.38,37.57z M38.29,38.65l-2.75,2.75l-2.75-2.75l2.75-2.75
		L38.29,38.65z M31.71,37.57l-2.75-2.75l2.75-2.75l2.75,2.75L31.71,37.57z M30.62,38.65l-2.75,2.75l-2.75-2.75l2.75-2.75
		L30.62,38.65z M24.03,37.57l-2.75-2.75l2.75-2.75l2.75,2.75L24.03,37.57z M22.95,38.65L20.2,41.4l-2.75-2.75l2.75-2.75L22.95,38.65
		z M22.95,46.32l-2.75,2.75l-2.75-2.75l2.75-2.75L22.95,46.32z M22.95,54l-2.75,2.75L17.45,54l2.75-2.75L22.95,54z M22.95,61.67
		l-2.75,2.75l-2.75-2.75l2.75-2.75L22.95,61.67z M22.95,69.34l-2.75,2.75l-2.75-2.75l2.75-2.75L22.95,69.34z M22.95,77.01
		l-2.75,2.75l-2.75-2.75l2.75-2.75L22.95,77.01z M22.95,84.68l-2.75,2.75l-2.75-2.75l2.75-2.75L22.95,84.68z M22.95,92.35L20.2,95.1
		l-2.75-2.75l2.75-2.75L22.95,92.35z M24.03,93.44l2.75,2.75l-2.75,2.75l-2.75-2.75L24.03,93.44z M25.12,92.35l2.75-2.75l2.75,2.75
		l-2.75,2.75L25.12,92.35z M31.71,93.44l2.75,2.75l-2.75,2.75l-2.75-2.75L31.71,93.44z M32.79,92.35l2.75-2.75l2.75,2.75l-2.75,2.75
		L32.79,92.35z M39.38,93.44l2.75,2.75l-2.75,2.75l-2.75-2.75L39.38,93.44z M40.46,92.35l2.75-2.75l2.75,2.75l-2.75,2.75
		L40.46,92.35z M47.05,93.44l2.75,2.75l-2.75,2.75l-2.75-2.75L47.05,93.44z M48.13,92.35l2.75-2.75l2.75,2.75l-2.75,2.75
		L48.13,92.35z M54.72,93.44l2.75,2.75l-2.75,2.75l-2.75-2.75L54.72,93.44z M55.81,92.35l2.75-2.75l2.75,2.75l-2.75,2.75
		L55.81,92.35z M62.39,93.44l2.75,2.75l-2.75,2.75l-2.75-2.75L62.39,93.44z M63.48,92.35l2.75-2.75l2.75,2.75l-2.75,2.75
		L63.48,92.35z M70.06,93.44l2.75,2.75l-2.75,2.75l-2.75-2.75L70.06,93.44z M67.31,88.52l2.75-2.75l2.75,2.75l-2.75,2.75
		L67.31,88.52z M67.31,80.85l2.75-2.75l2.75,2.75l-2.75,2.75L67.31,80.85z M67.31,73.17l2.75-2.75l2.75,2.75l-2.75,2.75L67.31,73.17
		z M67.31,65.5l2.75-2.75l2.75,2.75l-2.75,2.75L67.31,65.5z M67.31,57.83l2.75-2.75l2.75,2.75l-2.75,2.75L67.31,57.83z M67.31,50.16
		l2.75-2.75l2.75,2.75l-2.75,2.75L67.31,50.16z M67.31,42.49l2.75-2.75l2.75,2.75l-2.75,2.75L67.31,42.49z M67.31,34.82l2.75-2.75
		l2.75,2.75l-2.75,2.75L67.31,34.82z M67.31,27.14l2.75-2.75l2.75,2.75l-2.75,2.75L67.31,27.14z M68.98,30.98l-2.75,2.75l-2.75-2.75
		l2.75-2.75L68.98,30.98z M62.39,29.9l-2.75-2.75l2.75-2.75l2.75,2.75L62.39,29.9z M61.31,30.98l-2.75,2.75l-2.75-2.75l2.75-2.75
		L61.31,30.98z M54.72,29.9l-2.75-2.75l2.75-2.75l2.75,2.75L54.72,29.9z M53.64,30.98l-2.75,2.75l-2.75-2.75l2.75-2.75L53.64,30.98z
		 M47.05,29.9l-2.75-2.75l2.75-2.75l2.75,2.75L47.05,29.9z M45.96,30.98l-2.75,2.75l-2.75-2.75l2.75-2.75L45.96,30.98z M39.38,29.9
		l-2.75-2.75l2.75-2.75l2.75,2.75L39.38,29.9z M38.29,30.98l-2.75,2.75l-2.75-2.75l2.75-2.75L38.29,30.98z M31.71,29.9l-2.75-2.75
		l2.75-2.75l2.75,2.75L31.71,29.9z M30.62,30.98l-2.75,2.75l-2.75-2.75l2.75-2.75L30.62,30.98z M24.03,29.9l-2.75-2.75l2.75-2.75
		l2.75,2.75L24.03,29.9z M22.95,30.98l-2.75,2.75l-2.75-2.75l2.75-2.75L22.95,30.98z M16.36,29.9l-2.75-2.75l2.75-2.75l2.75,2.75
		L16.36,29.9z M19.11,34.82l-2.75,2.75l-2.75-2.75l2.75-2.75L19.11,34.82z M19.11,42.49l-2.75,2.75l-2.75-2.75l2.75-2.75
		L19.11,42.49z M19.11,50.16l-2.75,2.75l-2.75-2.75l2.75-2.75L19.11,50.16z M19.11,57.83l-2.75,2.75l-2.75-2.75l2.75-2.75
		L19.11,57.83z M19.11,65.5l-2.75,2.75l-2.75-2.75l2.75-2.75L19.11,65.5z M19.11,73.17l-2.75,2.75l-2.75-2.75l2.75-2.75L19.11,73.17
		z M19.11,80.85l-2.75,2.75l-2.75-2.75l2.75-2.75L19.11,80.85z M19.11,88.52l-2.75,2.75l-2.75-2.75l2.75-2.75L19.11,88.52z
		 M19.11,96.19l-2.75,2.75l-2.75-2.75l2.75-2.75L19.11,96.19z M19.11,103.86l-2.75,2.75l-2.75-2.75l2.75-2.75L19.11,103.86z
		 M17.45,100.03l2.75-2.75l2.75,2.75l-2.75,2.75L17.45,100.03z M24.03,101.11l2.75,2.75l-2.75,2.75l-2.75-2.75L24.03,101.11z
		 M25.12,100.03l2.75-2.75l2.75,2.75l-2.75,2.75L25.12,100.03z M31.71,101.11l2.75,2.75l-2.75,2.75l-2.75-2.75L31.71,101.11z
		 M32.79,100.03l2.75-2.75l2.75,2.75l-2.75,2.75L32.79,100.03z M39.38,101.11l2.75,2.75l-2.75,2.75l-2.75-2.75L39.38,101.11z
		 M40.46,100.03l2.75-2.75l2.75,2.75l-2.75,2.75L40.46,100.03z M47.05,101.11l2.75,2.75l-2.75,2.75l-2.75-2.75L47.05,101.11z
		 M48.13,100.03l2.75-2.75l2.75,2.75l-2.75,2.75L48.13,100.03z M54.72,101.11l2.75,2.75l-2.75,2.75l-2.75-2.75L54.72,101.11z
		 M55.81,100.03l2.75-2.75l2.75,2.75l-2.75,2.75L55.81,100.03z M62.39,101.11l2.75,2.75l-2.75,2.75l-2.75-2.75L62.39,101.11z
		 M63.48,100.03l2.75-2.75l2.75,2.75l-2.75,2.75L63.48,100.03z M70.06,101.11l2.75,2.75l-2.75,2.75l-2.75-2.75L70.06,101.11z
		 M71.15,100.03l2.75-2.75l2.75,2.75l-2.75,2.75L71.15,100.03z M71.15,92.35l2.75-2.75l2.75,2.75L73.9,95.1L71.15,92.35z
		 M71.15,84.68l2.75-2.75l2.75,2.75l-2.75,2.75L71.15,84.68z M71.15,77.01l2.75-2.75l2.75,2.75l-2.75,2.75L71.15,77.01z
		 M71.15,69.34l2.75-2.75l2.75,2.75l-2.75,2.75L71.15,69.34z M71.15,61.67l2.75-2.75l2.75,2.75l-2.75,2.75L71.15,61.67z M71.15,54
		l2.75-2.75L76.65,54l-2.75,2.75L71.15,54z M71.15,46.32l2.75-2.75l2.75,2.75l-2.75,2.75L71.15,46.32z M71.15,38.65l2.75-2.75
		l2.75,2.75L73.9,41.4L71.15,38.65z M71.15,30.98l2.75-2.75l2.75,2.75l-2.75,2.75L71.15,30.98z M71.15,23.31l2.75-2.75l2.75,2.75
		l-2.75,2.75L71.15,23.31z M70.06,22.22l-2.75-2.75l2.75-2.75l2.75,2.75L70.06,22.22z M68.98,23.31l-2.75,2.75l-2.75-2.75l2.75-2.75
		L68.98,23.31z M62.39,22.22l-2.75-2.75l2.75-2.75l2.75,2.75L62.39,22.22z M61.31,23.31l-2.75,2.75l-2.75-2.75l2.75-2.75
		L61.31,23.31z M54.72,22.22l-2.75-2.75l2.75-2.75l2.75,2.75L54.72,22.22z M53.64,23.31l-2.75,2.75l-2.75-2.75l2.75-2.75
		L53.64,23.31z M47.05,22.22l-2.75-2.75l2.75-2.75l2.75,2.75L47.05,22.22z M45.96,23.31l-2.75,2.75l-2.75-2.75l2.75-2.75
		L45.96,23.31z M39.38,22.22l-2.75-2.75l2.75-2.75l2.75,2.75L39.38,22.22z M38.29,23.31l-2.75,2.75l-2.75-2.75l2.75-2.75
		L38.29,23.31z M31.71,22.22l-2.75-2.75l2.75-2.75l2.75,2.75L31.71,22.22z M30.62,23.31l-2.75,2.75l-2.75-2.75l2.75-2.75
		L30.62,23.31z M24.03,22.22l-2.75-2.75l2.75-2.75l2.75,2.75L24.03,22.22z M22.95,23.31l-2.75,2.75l-2.75-2.75l2.75-2.75
		L22.95,23.31z M16.36,22.22l-2.75-2.75l2.75-2.75l2.75,2.75L16.36,22.22z M15.28,23.31l-2.75,2.75l-2.75-2.75l2.75-2.75
		L15.28,23.31z M15.28,30.98l-2.75,2.75l-2.75-2.75l2.75-2.75L15.28,30.98z M15.28,38.65l-2.75,2.75l-2.75-2.75l2.75-2.75
		L15.28,38.65z M15.28,46.32l-2.75,2.75l-2.75-2.75l2.75-2.75L15.28,46.32z M15.28,54l-2.75,2.75L9.78,54l2.75-2.75L15.28,54z
		 M15.28,61.67l-2.75,2.75l-2.75-2.75l2.75-2.75L15.28,61.67z M15.28,69.34l-2.75,2.75l-2.75-2.75l2.75-2.75L15.28,69.34z
		 M15.28,77.01l-2.75,2.75l-2.75-2.75l2.75-2.75L15.28,77.01z M15.28,84.68l-2.75,2.75l-2.75-2.75l2.75-2.75L15.28,84.68z
		 M15.28,92.35l-2.75,2.75l-2.75-2.75l2.75-2.75L15.28,92.35z M15.28,100.03l-2.75,2.75l-2.75-2.75l2.75-2.75L15.28,100.03z
		 M15.28,107.7l-2.75,2.75l-2.75-2.75l2.75-2.75L15.28,107.7z M16.36,108.78l2.75,2.75l-2.75,2.75l-2.75-2.75L16.36,108.78z
		 M17.45,107.7l2.75-2.75l2.75,2.75l-2.75,2.75L17.45,107.7z M24.03,108.78l2.75,2.75l-2.75,2.75l-2.75-2.75L24.03,108.78z
		 M25.12,107.7l2.75-2.75l2.75,2.75l-2.75,2.75L25.12,107.7z M31.71,108.78l2.75,2.75l-2.75,2.75l-2.75-2.75L31.71,108.78z
		 M32.79,107.7l2.75-2.75l2.75,2.75l-2.75,2.75L32.79,107.7z M39.38,108.78l2.75,2.75l-2.75,2.75l-2.75-2.75L39.38,108.78z
		 M40.46,107.7l2.75-2.75l2.75,2.75l-2.75,2.75L40.46,107.7z M47.05,108.78l2.75,2.75l-2.75,2.75l-2.75-2.75L47.05,108.78z
		 M48.13,107.7l2.75-2.75l2.75,2.75l-2.75,2.75L48.13,107.7z M54.72,108.78l2.75,2.75l-2.75,2.75l-2.75-2.75L54.72,108.78z
		 M55.81,107.7l2.75-2.75l2.75,2.75l-2.75,2.75L55.81,107.7z M62.39,108.78l2.75,2.75l-2.75,2.75l-2.75-2.75L62.39,108.78z
		 M63.48,107.7l2.75-2.75l2.75,2.75l-2.75,2.75L63.48,107.7z M70.06,108.78l2.75,2.75l-2.75,2.75l-2.75-2.75L70.06,108.78z
		 M71.15,107.7l2.75-2.75l2.75,2.75l-2.75,2.75L71.15,107.7z M77.74,108.78l2.75,2.75l-2.75,2.75l-2.75-2.75L77.74,108.78z
		 M74.98,103.86l2.75-2.75l2.75,2.75l-2.75,2.75L74.98,103.86z M74.98,96.19l2.75-2.75l2.75,2.75l-2.75,2.75L74.98,96.19z
		 M74.98,88.52l2.75-2.75l2.75,2.75l-2.75,2.75L74.98,88.52z M74.98,80.85l2.75-2.75l2.75,2.75l-2.75,2.75L74.98,80.85z
		 M74.98,73.17l2.75-2.75l2.75,2.75l-2.75,2.75L74.98,73.17z M74.98,65.5l2.75-2.75l2.75,2.75l-2.75,2.75L74.98,65.5z M74.98,57.83
		l2.75-2.75l2.75,2.75l-2.75,2.75L74.98,57.83z M74.98,50.16l2.75-2.75l2.75,2.75l-2.75,2.75L74.98,50.16z M74.98,42.49l2.75-2.75
		l2.75,2.75l-2.75,2.75L74.98,42.49z M74.98,34.82l2.75-2.75l2.75,2.75l-2.75,2.75L74.98,34.82z M74.98,27.14l2.75-2.75l2.75,2.75
		l-2.75,2.75L74.98,27.14z M74.98,19.47l2.75-2.75l2.75,2.75l-2.75,2.75L74.98,19.47z M74.98,11.8l2.75-2.75l2.75,2.75l-2.75,2.75
		L74.98,11.8z M76.65,15.64l-2.75,2.75l-2.75-2.75l2.75-2.75L76.65,15.64z M70.06,14.55l-2.75-2.75l2.75-2.75l2.75,2.75L70.06,14.55
		z M68.98,15.64l-2.75,2.75l-2.75-2.75l2.75-2.75L68.98,15.64z M62.39,14.55l-2.75-2.75l2.75-2.75l2.75,2.75L62.39,14.55z
		 M61.31,15.64l-2.75,2.75l-2.75-2.75l2.75-2.75L61.31,15.64z M54.72,14.55l-2.75-2.75l2.75-2.75l2.75,2.75L54.72,14.55z
		 M53.64,15.64l-2.75,2.75l-2.75-2.75l2.75-2.75L53.64,15.64z M47.05,14.55L44.3,11.8l2.75-2.75l2.75,2.75L47.05,14.55z
		 M45.96,15.64l-2.75,2.75l-2.75-2.75l2.75-2.75L45.96,15.64z M39.38,14.55l-2.75-2.75l2.75-2.75l2.75,2.75L39.38,14.55z
		 M38.29,15.64l-2.75,2.75l-2.75-2.75l2.75-2.75L38.29,15.64z M31.71,14.55l-2.75-2.75l2.75-2.75l2.75,2.75L31.71,14.55z
		 M30.62,15.64l-2.75,2.75l-2.75-2.75l2.75-2.75L30.62,15.64z M24.03,14.55l-2.75-2.75l2.75-2.75l2.75,2.75L24.03,14.55z
		 M22.95,15.64l-2.75,2.75l-2.75-2.75l2.75-2.75L22.95,15.64z M16.36,14.55l-2.75-2.75l2.75-2.75l2.75,2.75L16.36,14.55z
		 M15.28,15.64l-2.75,2.75l-2.75-2.75l2.75-2.75L15.28,15.64z M8.69,14.55L5.94,11.8l2.75-2.75l2.75,2.75L8.69,14.55z M11.44,19.47
		l-2.75,2.75l-2.75-2.75l2.75-2.75L11.44,19.47z M11.44,27.14L8.69,29.9l-2.75-2.75l2.75-2.75L11.44,27.14z M11.44,34.82l-2.75,2.75
		l-2.75-2.75l2.75-2.75L11.44,34.82z M11.44,42.49l-2.75,2.75l-2.75-2.75l2.75-2.75L11.44,42.49z M11.44,50.16l-2.75,2.75
		l-2.75-2.75l2.75-2.75L11.44,50.16z M11.44,57.83l-2.75,2.75l-2.75-2.75l2.75-2.75L11.44,57.83z M11.44,65.5l-2.75,2.75L5.94,65.5
		l2.75-2.75L11.44,65.5z M11.44,73.17l-2.75,2.75l-2.75-2.75l2.75-2.75L11.44,73.17z M11.44,80.85L8.69,83.6l-2.75-2.75l2.75-2.75
		L11.44,80.85z M11.44,88.52l-2.75,2.75l-2.75-2.75l2.75-2.75L11.44,88.52z M11.44,96.19l-2.75,2.75l-2.75-2.75l2.75-2.75
		L11.44,96.19z M11.44,103.86l-2.75,2.75l-2.75-2.75l2.75-2.75L11.44,103.86z M11.44,111.53l-2.75,2.75l-2.75-2.75l2.75-2.75
		L11.44,111.53z M11.44,119.2l-2.75,2.75l-2.75-2.75l2.75-2.75L11.44,119.2z M9.78,115.37l2.75-2.75l2.75,2.75l-2.75,2.75
		L9.78,115.37z M16.36,116.45l2.75,2.75l-2.75,2.75l-2.75-2.75L16.36,116.45z M17.45,115.37l2.75-2.75l2.75,2.75l-2.75,2.75
		L17.45,115.37z M24.03,116.45l2.75,2.75l-2.75,2.75l-2.75-2.75L24.03,116.45z M25.12,115.37l2.75-2.75l2.75,2.75l-2.75,2.75
		L25.12,115.37z M31.71,116.45l2.75,2.75l-2.75,2.75l-2.75-2.75L31.71,116.45z M32.79,115.37l2.75-2.75l2.75,2.75l-2.75,2.75
		L32.79,115.37z M39.38,116.45l2.75,2.75l-2.75,2.75l-2.75-2.75L39.38,116.45z M40.46,115.37l2.75-2.75l2.75,2.75l-2.75,2.75
		L40.46,115.37z M47.05,116.45l2.75,2.75l-2.75,2.75l-2.75-2.75L47.05,116.45z M48.13,115.37l2.75-2.75l2.75,2.75l-2.75,2.75
		L48.13,115.37z M54.72,116.45l2.75,2.75l-2.75,2.75l-2.75-2.75L54.72,116.45z M55.81,115.37l2.75-2.75l2.75,2.75l-2.75,2.75
		L55.81,115.37z M62.39,116.45l2.75,2.75l-2.75,2.75l-2.75-2.75L62.39,116.45z M63.48,115.37l2.75-2.75l2.75,2.75l-2.75,2.75
		L63.48,115.37z M70.06,116.45l2.75,2.75l-2.75,2.75l-2.75-2.75L70.06,116.45z M71.15,115.37l2.75-2.75l2.75,2.75l-2.75,2.75
		L71.15,115.37z M77.74,116.45l2.75,2.75l-2.75,2.75l-2.75-2.75L77.74,116.45z M78.82,115.37l2.75-2.75l2.75,2.75l-2.75,2.75
		L78.82,115.37z M78.82,107.7l2.75-2.75l2.75,2.75l-2.75,2.75L78.82,107.7z M78.82,100.03l2.75-2.75l2.75,2.75l-2.75,2.75
		L78.82,100.03z M78.82,92.35l2.75-2.75l2.75,2.75l-2.75,2.75L78.82,92.35z M78.82,84.68l2.75-2.75l2.75,2.75l-2.75,2.75
		L78.82,84.68z M78.82,77.01l2.75-2.75l2.75,2.75l-2.75,2.75L78.82,77.01z M78.82,69.34l2.75-2.75l2.75,2.75l-2.75,2.75L78.82,69.34
		z M78.82,61.67l2.75-2.75l2.75,2.75l-2.75,2.75L78.82,61.67z M78.82,54l2.75-2.75L84.32,54l-2.75,2.75L78.82,54z M78.82,46.32
		l2.75-2.75l2.75,2.75l-2.75,2.75L78.82,46.32z M78.82,38.65l2.75-2.75l2.75,2.75l-2.75,2.75L78.82,38.65z M78.82,30.98l2.75-2.75
		l2.75,2.75l-2.75,2.75L78.82,30.98z M78.82,23.31l2.75-2.75l2.75,2.75l-2.75,2.75L78.82,23.31z M78.82,15.64l2.75-2.75l2.75,2.75
		l-2.75,2.75L78.82,15.64z M77.74,1.38l2.75,2.75l-2.75,2.75l-2.75-2.75L77.74,1.38z M76.65,7.97l-2.75,2.75l-2.75-2.75l2.75-2.75
		L76.65,7.97z M70.06,1.38l2.75,2.75l-2.75,2.75l-2.75-2.75L70.06,1.38z M68.98,7.97l-2.75,2.75l-2.75-2.75l2.75-2.75L68.98,7.97z
		 M62.39,1.38l2.75,2.75l-2.75,2.75l-2.75-2.75L62.39,1.38z M61.31,7.97l-2.75,2.75l-2.75-2.75l2.75-2.75L61.31,7.97z M54.72,1.38
		l2.75,2.75l-2.75,2.75l-2.75-2.75L54.72,1.38z M53.64,7.97l-2.75,2.75l-2.75-2.75l2.75-2.75L53.64,7.97z M47.05,1.38l2.75,2.75
		l-2.75,2.75L44.3,4.13L47.05,1.38z M45.96,7.97l-2.75,2.75l-2.75-2.75l2.75-2.75L45.96,7.97z M39.38,1.38l2.75,2.75l-2.75,2.75
		l-2.75-2.75L39.38,1.38z M38.29,7.97l-2.75,2.75l-2.75-2.75l2.75-2.75L38.29,7.97z M31.71,1.38l2.75,2.75l-2.75,2.75l-2.75-2.75
		L31.71,1.38z M30.62,7.97l-2.75,2.75l-2.75-2.75l2.75-2.75L30.62,7.97z M24.03,1.38l2.75,2.75l-2.75,2.75l-2.75-2.75L24.03,1.38z
		 M22.95,7.97l-2.75,2.75l-2.75-2.75l2.75-2.75L22.95,7.97z M16.36,1.38l2.75,2.75l-2.75,2.75l-2.75-2.75L16.36,1.38z M15.28,7.97
		l-2.75,2.75L9.78,7.97l2.75-2.75L15.28,7.97z M8.69,1.38l2.75,2.75L8.69,6.88L5.94,4.13L8.69,1.38z M2.1,7.97l2.75-2.75l2.75,2.75
		l-2.75,2.75L2.1,7.97z M2.1,15.64l2.75-2.75l2.75,2.75l-2.75,2.75L2.1,15.64z M2.1,23.31l2.75-2.75l2.75,2.75l-2.75,2.75L2.1,23.31
		z M2.1,30.98l2.75-2.75l2.75,2.75l-2.75,2.75L2.1,30.98z M2.1,38.65l2.75-2.75l2.75,2.75L4.85,41.4L2.1,38.65z M2.1,46.32
		l2.75-2.75l2.75,2.75l-2.75,2.75L2.1,46.32z M2.1,54l2.75-2.75L7.61,54l-2.75,2.75L2.1,54z M2.1,61.67l2.75-2.75l2.75,2.75
		l-2.75,2.75L2.1,61.67z M2.1,69.34l2.75-2.75l2.75,2.75l-2.75,2.75L2.1,69.34z M2.1,77.01l2.75-2.75l2.75,2.75l-2.75,2.75
		L2.1,77.01z M2.1,84.68l2.75-2.75l2.75,2.75l-2.75,2.75L2.1,84.68z M2.1,92.35l2.75-2.75l2.75,2.75L4.85,95.1L2.1,92.35z
		 M2.1,100.03l2.75-2.75l2.75,2.75l-2.75,2.75L2.1,100.03z M2.1,107.7l2.75-2.75l2.75,2.75l-2.75,2.75L2.1,107.7z M2.1,115.37
		l2.75-2.75l2.75,2.75l-2.75,2.75L2.1,115.37z M2.1,123.04l2.75-2.75l2.75,2.75l-2.75,2.75L2.1,123.04z M8.69,129.63l-2.75-2.75
		l2.75-2.75l2.75,2.75L8.69,129.63z M9.78,123.04l2.75-2.75l2.75,2.75l-2.75,2.75L9.78,123.04z M16.36,129.63l-2.75-2.75l2.75-2.75
		l2.75,2.75L16.36,129.63z M17.45,123.04l2.75-2.75l2.75,2.75l-2.75,2.75L17.45,123.04z M24.03,129.63l-2.75-2.75l2.75-2.75
		l2.75,2.75L24.03,129.63z M25.12,123.04l2.75-2.75l2.75,2.75l-2.75,2.75L25.12,123.04z M31.71,129.63l-2.75-2.75l2.75-2.75
		l2.75,2.75L31.71,129.63z M32.79,123.04l2.75-2.75l2.75,2.75l-2.75,2.75L32.79,123.04z M39.38,129.63l-2.75-2.75l2.75-2.75
		l2.75,2.75L39.38,129.63z M40.46,123.04l2.75-2.75l2.75,2.75l-2.75,2.75L40.46,123.04z M47.05,129.63l-2.75-2.75l2.75-2.75
		l2.75,2.75L47.05,129.63z M48.13,123.04l2.75-2.75l2.75,2.75l-2.75,2.75L48.13,123.04z M54.72,129.63l-2.75-2.75l2.75-2.75
		l2.75,2.75L54.72,129.63z M55.81,123.04l2.75-2.75l2.75,2.75l-2.75,2.75L55.81,123.04z M62.39,129.63l-2.75-2.75l2.75-2.75
		l2.75,2.75L62.39,129.63z M63.48,123.04l2.75-2.75l2.75,2.75l-2.75,2.75L63.48,123.04z M70.06,129.63l-2.75-2.75l2.75-2.75
		l2.75,2.75L70.06,129.63z M71.15,123.04l2.75-2.75l2.75,2.75l-2.75,2.75L71.15,123.04z M77.74,129.63l-2.75-2.75l2.75-2.75
		l2.75,2.75L77.74,129.63z M78.82,123.04l2.75-2.75l2.75,2.75l-2.75,2.75L78.82,123.04z M88.16,126.88l-2.75,2.75l-2.75-2.75
		l2.75-2.75L88.16,126.88z M88.16,119.2l-2.75,2.75l-2.75-2.75l2.75-2.75L88.16,119.2z M88.16,111.53l-2.75,2.75l-2.75-2.75
		l2.75-2.75L88.16,111.53z M88.16,103.86l-2.75,2.75l-2.75-2.75l2.75-2.75L88.16,103.86z M88.16,96.19l-2.75,2.75l-2.75-2.75
		l2.75-2.75L88.16,96.19z M88.16,88.52l-2.75,2.75l-2.75-2.75l2.75-2.75L88.16,88.52z M88.16,80.85l-2.75,2.75l-2.75-2.75l2.75-2.75
		L88.16,80.85z M88.16,73.17l-2.75,2.75l-2.75-2.75l2.75-2.75L88.16,73.17z M88.16,65.5l-2.75,2.75l-2.75-2.75l2.75-2.75L88.16,65.5
		z M88.16,57.83l-2.75,2.75l-2.75-2.75l2.75-2.75L88.16,57.83z M88.16,50.16l-2.75,2.75l-2.75-2.75l2.75-2.75L88.16,50.16z
		 M88.16,42.49l-2.75,2.75l-2.75-2.75l2.75-2.75L88.16,42.49z M88.16,34.82l-2.75,2.75l-2.75-2.75l2.75-2.75L88.16,34.82z
		 M88.16,27.14l-2.75,2.75l-2.75-2.75l2.75-2.75L88.16,27.14z M88.16,19.47l-2.75,2.75l-2.75-2.75l2.75-2.75L88.16,19.47z
		 M88.16,11.8l-2.75,2.75l-2.75-2.75l2.75-2.75L88.16,11.8z M85.41,6.88l-2.75-2.75l2.75-2.75l2.75,2.75L85.41,6.88z"/>
</g>
</svg>
